Raleway-Thin.ufo
<glyph name="nine" format="1">
  <advance width="579"/>
  <unicode hex="0039"/>
  <outline>
    <contour>
      <point x="37" y="329" type="curve" smooth="yes"/>
      <point x="37" y="463"/>
      <point x="146" y="571"/>
      <point x="283" y="571" type="curve" smooth="yes"/>
      <point x="424" y="571"/>
      <point x="533" y="466"/>
      <point x="533" y="295" type="curve" smooth="yes"/>
      <point x="533" y="-16"/>
      <point x="429" y="-154"/>
      <point x="281" y="-154" type="curve" smooth="yes"/>
      <point x="184" y="-154"/>
      <point x="104" y="-97"/>
      <point x="75" y="-7" type="curve"/>
      <point x="94" y="0" type="line"/>
      <point x="119" y="-80"/>
      <point x="194" y="-134"/>
      <point x="280" y="-134" type="curve" smooth="yes"/>
      <point x="418" y="-134"/>
      <point x="511" y="7"/>
      <point x="511" y="253" type="curve"/>
      <point x="480" y="154"/>
      <point x="385" y="86"/>
      <point x="279" y="86" type="curve" smooth="yes"/>
      <point x="145" y="86"/>
      <point x="37" y="195"/>
    </contour>
    <contour>
      <point x="281" y="551" type="curve" smooth="yes"/>
      <point x="158" y="551"/>
      <point x="57" y="451"/>
      <point x="57" y="330" type="curve" smooth="yes"/>
      <point x="57" y="208"/>
      <point x="160" y="106"/>
      <point x="282" y="106" type="curve" smooth="yes"/>
      <point x="405" y="106"/>
      <point x="507" y="208"/>
      <point x="507" y="329" type="curve" smooth="yes"/>
      <point x="507" y="450"/>
      <point x="404" y="551"/>
    </contour>
  </outline>
</glyph>
<glyph name="colon" format="1">
  <advance width="158"/>
  <unicode hex="003A"/>
  <outline>
    <contour>
      <point x="89" y="453" type="line"/>
      <point x="89" y="517" type="line"/>
      <point x="69" y="517" type="line"/>
      <point x="69" y="453" type="line"/>
    </contour>
    <contour>
      <point x="89" y="0" type="line"/>
      <point x="89" y="64" type="line"/>
      <point x="69" y="64" type="line"/>
      <point x="69" y="0" type="line"/>
    </contour>
  </outline>
</glyph>
<glyph name="E" format="1">
  <advance width="617"/>
  <unicode hex="0045"/>
  <outline>
    <contour>
      <point x="344" y="707" type="move" name="top"/>
    </contour>
    <contour>
      <point x="344" y="0" type="move" name="bottom"/>
    </contour>
    <contour>
      <point x="119" y="20" type="line"/>
      <point x="119" y="353" type="line"/>
      <point x="502" y="353" type="line"/>
      <point x="502" y="373" type="line"/>
      <point x="119" y="373" type="line"/>
      <point x="119" y="690" type="line"/>
      <point x="556" y="690" type="line"/>
      <point x="556" y="710" type="line"/>
      <point x="99" y="710" type="line"/>
      <point x="99" y="0" type="line"/>
      <point x="565" y="0" type="line"/>
      <point x="565" y="20" type="line"/>
    </contour>
  </outline>
</glyph>
<glyph name="L" format="1">
  <advance width="579"/>
  <unicode hex="004C"/>
  <outline>
    <contour>
      <point x="331" y="707" type="move" name="top"/>
    </contour>
    <contour>
      <point x="331" y="0" type="move" name="bottom"/>
    </contour>
    <contour>
      <point x="565" y="0" type="line"/>
      <point x="565" y="20" type="line"/>
      <point x="119" y="20" type="line"/>
      <point x="119" y="710" type="line"/>
      <point x="99" y="710" type="line"/>
      <point x="99" y="0" type="line"/>
    </contour>
  </outline>
</glyph>
<glyph name="h" format="1">
  <advance width="565"/>
  <unicode hex="0068"/>
  <outline>
    <contour>
      <point x="302" y="518" type="move" name="top"/>
    </contour>
    <contour>
      <point x="487" y="289" type="line" smooth="yes"/>
      <point x="487" y="445"/>
      <point x="430" y="527"/>
      <point x="322" y="527" type="curve" smooth="yes"/>
      <point x="233" y="527"/>
      <point x="147" y="471"/>
      <point x="104" y="385" type="curve"/>
      <point x="104" y="730" type="line"/>
      <point x="84" y="730" type="line"/>
      <point x="84" y="0" type="line"/>
      <point x="104" y="0" type="line"/>
      <point x="104" y="328" type="line"/>
      <point x="131" y="429"/>
      <point x="226" y="507"/>
      <point x="323" y="507" type="curve" smooth="yes"/>
      <point x="418" y="507"/>
      <point x="467" y="433"/>
      <point x="467" y="289" type="curve" smooth="yes"/>
      <point x="467" y="0" type="line"/>
      <point x="487" y="0" type="line"/>
    </contour>
  </outline>
</glyph>
<glyph name="cent" format="1">
  <advance width="541"/>
  <unicode hex="00A2"/>
  <outline>
    <contour>
      <point x="296" y="-120" type="line"/>
      <point x="296" y="-10" type="line"/>
      <point x="372" y="-10"/>
      <point x="471" y="32"/>
      <point x="498" y="113" type="curve"/>
      <point x="478" y="119" type="line"/>
      <point x="461" y="53"/>
      <point x="361" y="10"/>
      <point x="296" y="10" type="curve"/>
      <point x="296" y="507" type="line"/>
      <point x="370" y="504"/>
      <point x="433" y="473"/>
      <point x="471" y="404" type="curve"/>
      <point x="490" y="411" type="line"/>
      <point x="457" y="477"/>
      <point x="400" y="524"/>
      <point x="296" y="527" type="curve"/>
      <point x="296" y="645" type="line"/>
      <point x="276" y="645" type="line"/>
      <point x="276" y="527" type="line"/>
      <point x="140" y="520"/>
      <point x="46" y="393"/>
      <point x="46" y="258" type="curve" smooth="yes"/>
      <point x="46" y="131"/>
      <point x="141" y="2"/>
      <point x="276" y="-9" type="curve"/>
      <point x="276" y="-120" type="line"/>
    </contour>
    <contour>
      <point x="66" y="258" type="curve" smooth="yes"/>
      <point x="66" y="373"/>
      <point x="142" y="500"/>
      <point x="276" y="507" type="curve"/>
      <point x="276" y="11" type="line"/>
      <point x="157" y="22"/>
      <point x="66" y="135"/>
    </contour>
  </outline>
</glyph>
<glyph name="brokenbar" format="1">
  <advance width="214"/>
  <unicode hex="00A6"/>
  <outline>
    <contour>
      <point x="97" y="285" type="line"/>
      <point x="97" y="-130" type="line"/>
      <point x="117" y="-130" type="line"/>
      <point x="117" y="285" type="line"/>
    </contour>
    <contour>
      <point x="97" y="775" type="line"/>
      <point x="97" y="360" type="line"/>
      <point x="117" y="360" type="line"/>
      <point x="117" y="775" type="line"/>
    </contour>
  </outline>
</glyph>
<glyph name="acute" format="1">
  <advance width="198"/>
  <unicode hex="00B4"/>
  <outline>
    <contour>
      <point x="80" y="519" type="move" name="_top"/>
    </contour>
    <contour>
      <point x="148" y="730" type="line"/>
      <point x="114" y="730" type="line"/>
      <point x="50" y="657" type="line"/>
      <point x="66" y="645" type="line"/>
    </contour>
  </outline>
</glyph>
<glyph name="ordmasculine" format="1">
  <advance width="450"/>
  <unicode hex="00BA"/>
  <outline>
    <contour>
      <point x="293" y="519" type="move" name="top"/>
    </contour>
    <contour>
      <point x="292" y="0" type="move" name="bottom"/>
    </contour>
    <contour>
      <point x="224" y="351" type="curve" smooth="yes"/>
      <point x="324" y="351"/>
      <point x="401" y="434"/>
      <point x="401" y="529" type="curve" smooth="yes"/>
      <point x="401" y="627"/>
      <point x="323" y="709"/>
      <point x="224" y="709" type="curve" smooth="yes"/>
      <point x="126" y="709"/>
      <point x="49" y="627"/>
      <point x="49" y="529" type="curve" smooth="yes"/>
      <point x="49" y="434"/>
      <point x="125" y="351"/>
    </contour>
    <contour>
      <point x="71" y="528" type="curve" smooth="yes"/>
      <point x="71" y="617"/>
      <point x="141" y="689"/>
      <point x="224" y="689" type="curve" smooth="yes"/>
      <point x="309" y="689"/>
      <point x="379" y="618"/>
      <point x="379" y="530" type="curve" smooth="yes"/>
      <point x="379" y="443"/>
      <point x="309" y="370"/>
      <point x="224" y="370" type="curve" smooth="yes"/>
      <point x="140" y="370"/>
      <point x="71" y="441"/>
    </contour>
  </outline>
</glyph>
<glyph name="Hbar" format="1">
  <advance width="741"/>
  <unicode hex="0126"/>
  <outline>
    <contour>
      <point x="687" y="554" type="line"/>
      <point x="687" y="574" type="line"/>
      <point x="54" y="574" type="line"/>
      <point x="54" y="554" type="line"/>
    </contour>
    <component base="H" xOffset="5"/>
  </outline>
</glyph>
<glyph name="OE" format="1">
  <advance width="1207"/>
  <unicode hex="0152"/>
  <outline>
    <contour>
      <point x="709" y="20" type="line"/>
      <point x="709" y="353" type="line"/>
      <point x="1092" y="353" type="line"/>
      <point x="1092" y="373" type="line"/>
      <point x="709" y="373" type="line"/>
      <point x="709" y="690" type="line"/>
      <point x="1146" y="690" type="line"/>
      <point x="1146" y="710" type="line"/>
      <point x="689" y="710" type="line"/>
      <point x="689" y="475" type="line"/>
      <point x="645" y="606"/>
      <point x="530" y="715"/>
      <point x="379" y="715" type="curve" smooth="yes"/>
      <point x="192" y="715"/>
      <point x="48" y="544"/>
      <point x="48" y="355" type="curve" smooth="yes"/>
      <point x="48" y="173"/>
      <point x="184" y="-5"/>
      <point x="381" y="-5" type="curve" smooth="yes"/>
      <point x="525" y="-5"/>
      <point x="643" y="100"/>
      <point x="689" y="234" type="curve"/>
      <point x="689" y="0" type="line"/>
      <point x="1155" y="0" type="line"/>
      <point x="1155" y="20" type="line"/>
    </contour>
    <contour>
      <point x="379" y="15" type="curve" smooth="yes"/>
      <point x="199" y="15"/>
      <point x="68" y="178"/>
      <point x="68" y="355" type="curve" smooth="yes"/>
      <point x="68" y="523"/>
      <point x="194" y="695"/>
      <point x="379" y="695" type="curve" smooth="yes"/>
      <point x="555" y="695"/>
      <point x="689" y="532"/>
      <point x="689" y="356" type="curve" smooth="yes"/>
      <point x="689" y="187"/>
      <point x="564" y="15"/>
    </contour>
  </outline>
</glyph>
<glyph name="uni0409" format="1">
  <advance width="988"/>
  <unicode hex="0409"/>
  <outline>
    <contour>
      <point x="5" y="0" type="line"/>
      <point x="115" y="0"/>
      <point x="179" y="146"/>
      <point x="212" y="546" type="curve" smooth="yes"/>
      <point x="224" y="690" type="line"/>
      <point x="513" y="690" type="line"/>
      <point x="513" y="0" type="line"/>
      <point x="741" y="0" type="line" smooth="yes"/>
      <point x="888" y="0"/>
      <point x="958" y="94"/>
      <point x="958" y="199" type="curve" smooth="yes"/>
      <point x="958" y="308"/>
      <point x="890" y="388"/>
      <point x="738" y="388" type="curve" smooth="yes"/>
      <point x="533" y="388" type="line"/>
      <point x="533" y="710" type="line"/>
      <point x="206" y="710" type="line"/>
      <point x="193" y="556" type="line" smooth="yes"/>
      <point x="155" y="102"/>
      <point x="76" y="20"/>
      <point x="5" y="20" type="curve"/>
    </contour>
    <contour>
      <point x="533" y="20" type="line"/>
      <point x="533" y="368" type="line"/>
      <point x="738" y="368" type="line" smooth="yes"/>
      <point x="895" y="368"/>
      <point x="938" y="286"/>
      <point x="938" y="199" type="curve" smooth="yes"/>
      <point x="938" y="109"/>
      <point x="883" y="20"/>
      <point x="741" y="20" type="curve" smooth="yes"/>
    </contour>
  </outline>
</glyph>
<glyph name="uni043A" format="1">
  <advance width="444"/>
  <unicode hex="043A"/>
  <outline>
    <contour>
      <point x="212" y="280" type="line"/>
      <point x="104" y="280" type="line"/>
      <point x="104" y="519" type="line"/>
      <point x="84" y="519" type="line"/>
      <point x="84" y="0" type="line"/>
      <point x="104" y="0" type="line"/>
      <point x="104" y="261" type="line"/>
      <point x="211" y="261" type="line"/>
      <point x="407" y="0" type="line"/>
      <point x="432" y="0" type="line"/>
      <point x="228" y="271" type="line"/>
      <point x="408" y="519" type="line"/>
      <point x="383" y="519" type="line"/>
    </contour>
  </outline>
</glyph>
<glyph name="uni043D" format="1">
  <advance width="568"/>
  <unicode hex="043D"/>
  <outline>
    <contour>
      <point x="104" y="519" type="line"/>
      <point x="84" y="519" type="line"/>
      <point x="84" y="0" type="line"/>
      <point x="104" y="0" type="line"/>
      <point x="104" y="256" type="line"/>
      <point x="464" y="256" type="line"/>
      <point x="464" y="0" type="line"/>
      <point x="484" y="0" type="line"/>
      <point x="484" y="519" type="line"/>
      <point x="464" y="519" type="line"/>
      <point x="464" y="275" type="line"/>
      <point x="104" y="275" type="line"/>
    </contour>
  </outline>
</glyph>
<glyph name="uni0442" format="1">
  <advance width="463"/>
  <unicode hex="0442"/>
  <outline>
    <contour>
      <point x="242" y="500" type="line"/>
      <point x="442" y="500" type="line"/>
      <point x="442" y="519" type="line"/>
      <point x="21" y="519" type="line"/>
      <point x="21" y="500" type="line"/>
      <point x="222" y="500" type="line"/>
      <point x="222" y="0" type="line"/>
      <point x="242" y="0" type="line"/>
    </contour>
  </outline>
</glyph>
<glyph name="uni0454" format="1">
  <advance width="540"/>
  <unicode hex="0454"/>
  <outline>
    <contour>
      <point x="293" y="-9" type="curve" smooth="yes"/>
      <point x="375" y="-9"/>
      <point x="467" y="34"/>
      <point x="503" y="113" type="curve"/>
      <point x="485" y="120" type="line"/>
      <point x="445" y="44"/>
      <point x="365" y="10"/>
      <point x="296" y="10" type="curve" smooth="yes"/>
      <point x="168" y="10"/>
      <point x="69" y="125"/>
      <point x="66" y="256" type="curve"/>
      <point x="351" y="256" type="line"/>
      <point x="351" y="275" type="line"/>
      <point x="66" y="275" type="line"/>
      <point x="72" y="390"/>
      <point x="153" y="507"/>
      <point x="294" y="507" type="curve" smooth="yes"/>
      <point x="360" y="507"/>
      <point x="432" y="480"/>
      <point x="473" y="404" type="curve"/>
      <point x="491" y="411" type="line"/>
      <point x="458" y="479"/>
      <point x="392" y="527"/>
      <point x="297" y="527" type="curve" smooth="yes"/>
      <point x="137" y="527"/>
      <point x="46" y="390"/>
      <point x="46" y="263" type="curve" smooth="yes"/>
      <point x="46" y="129"/>
      <point x="148" y="-9"/>
    </contour>
  </outline>
</glyph>
<glyph name="guilsinglright" format="1">
  <advance width="348"/>
  <unicode hex="203A"/>
  <outline>
    <contour>
      <point x="306" y="268" type="line"/>
      <point x="69" y="437" type="line"/>
      <point x="69" y="415" type="line"/>
      <point x="287" y="259" type="line"/>
      <point x="69" y="102" type="line"/>
      <point x="69" y="80" type="line"/>
      <point x="306" y="250" type="line"/>
    </contour>
  </outline>
</glyph>
<glyph name="lira" format="1">
  <advance width="460"/>
  <unicode hex="20A4"/>
  <outline>
    <contour>
      <point x="62" y="-7" type="line"/>
      <point x="90" y="0"/>
      <point x="127" y="5"/>
      <point x="156" y="5" type="curve" smooth="yes"/>
      <point x="216" y="5"/>
      <point x="251" y="-15"/>
      <point x="309" y="-15" type="curve" smooth="yes"/>
      <point x="344" y="-15"/>
      <point x="378" y="-8"/>
      <point x="415" y="7" type="curve"/>
      <point x="409" y="26" type="line"/>
      <point x="368" y="11"/>
      <point x="338" y="5"/>
      <point x="310" y="5" type="curve" smooth="yes"/>
      <point x="259" y="5"/>
      <point x="224" y="25"/>
      <point x="162" y="25" type="curve" smooth="yes"/>
      <point x="138" y="25"/>
      <point x="113" y="22"/>
      <point x="91" y="18" type="curve"/>
      <point x="179" y="113"/>
      <point x="209" y="171"/>
      <point x="209" y="242" type="curve" smooth="yes"/>
      <point x="209" y="380"/>
      <point x="97" y="448"/>
      <point x="97" y="552" type="curve" smooth="yes"/>
      <point x="97" y="631"/>
      <point x="160" y="695"/>
      <point x="236" y="695" type="curve" smooth="yes"/>
      <point x="295" y="695"/>
      <point x="351" y="658"/>
      <point x="383" y="598" type="curve"/>
      <point x="400" y="610" type="line"/>
      <point x="366" y="674"/>
      <point x="304" y="715"/>
      <point x="238" y="715" type="curve" smooth="yes"/>
      <point x="149" y="715"/>
      <point x="75" y="640"/>
      <point x="75" y="550" type="curve" smooth="yes"/>
      <point x="75" y="439"/>
      <point x="188" y="376"/>
      <point x="188" y="241" type="curve" smooth="yes"/>
      <point x="188" y="173"/>
      <point x="160" y="125"/>
      <point x="52" y="10" type="curve"/>
    </contour>
    <contour>
      <point x="44" y="346" type="line"/>
      <point x="350" y="346" type="line"/>
      <point x="350" y="366" type="line"/>
      <point x="44" y="366" type="line"/>
    </contour>
    <contour>
      <point x="87" y="261" type="line"/>
      <point x="370" y="261" type="line"/>
      <point x="370" y="281" type="line"/>
      <point x="87" y="281" type="line"/>
    </contour>
  </outline>
</glyph>
<glyph name="V.sc" format="1">
  <advance width="581"/>
  <outline>
    <contour>
      <point x="28" y="540" type="line"/>
      <point x="280" y="0" type="line"/>
      <point x="301" y="0" type="line"/>
      <point x="554" y="540" type="line"/>
      <point x="532" y="540" type="line"/>
      <point x="291" y="26" type="line"/>
      <point x="49" y="540" type="line"/>
    </contour>
  </outline>
</glyph>
<glyph name="eight.denominator" format="1">
  <advance width="382"/>
  <outline>
    <contour>
      <point x="339" y="103" type="curve" smooth="yes"/>
      <point x="339" y="154"/>
      <point x="296" y="191"/>
      <point x="240" y="206" type="curve"/>
      <point x="285" y="219"/>
      <point x="323" y="249"/>
      <point x="323" y="290" type="curve" smooth="yes"/>
      <point x="323" y="350"/>
      <point x="256" y="383"/>
      <point x="191" y="383" type="curve" smooth="yes"/>
      <point x="126" y="383"/>
      <point x="58" y="350"/>
      <point x="58" y="290" type="curve" smooth="yes"/>
      <point x="58" y="249"/>
      <point x="96" y="220"/>
      <point x="140" y="206" type="curve"/>
      <point x="92" y="193"/>
      <point x="42" y="157"/>
      <point x="42" y="105" type="curve" smooth="yes"/>
      <point x="42" y="47"/>
      <point x="100" y="-4"/>
      <point x="189" y="-4" type="curve" smooth="yes"/>
      <point x="269" y="-4"/>
      <point x="339" y="38"/>
    </contour>
    <contour>
      <point x="319" y="105" type="curve" smooth="yes"/>
      <point x="319" y="49"/>
      <point x="253" y="14"/>
      <point x="191" y="14" type="curve" smooth="yes"/>
      <point x="132" y="14"/>
      <point x="62" y="47"/>
      <point x="62" y="104" type="curve" smooth="yes"/>
      <point x="62" y="160"/>
      <point x="128" y="197"/>
      <point x="190" y="197" type="curve" smooth="yes"/>
      <point x="249" y="197"/>
      <point x="319" y="163"/>
    </contour>
    <contour>
      <point x="78" y="289" type="curve" smooth="yes"/>
      <point x="78" y="336"/>
      <point x="132" y="365"/>
      <point x="190" y="365" type="curve" smooth="yes"/>
      <point x="247" y="365"/>
      <point x="303" y="337"/>
      <point x="303" y="290" type="curve" smooth="yes"/>
      <point x="303" y="242"/>
      <point x="242" y="214"/>
      <point x="190" y="214" type="curve" smooth="yes"/>
      <point x="139" y="214"/>
      <point x="78" y="241"/>
    </contour>
  </outline>
</glyph>
